<svg xmlns="http://www.w3.org/2000/svg" xmlns:xlink="http://www.w3.org/1999/xlink"><defs><style>.a{fill:none;}</style><style>.a{fill:none;}.b{fill:#00adef;}</style><style>.a{fill:none;}.b{fill:#fff;fill-rule:evenodd;}</style><style>.a{fill:none;}.b{fill:#00adef;}</style></defs><symbol id="arrow" viewBox="0 0 15 15"><g transform="translate(-4929 1721) rotate(-90)"><rect class="a" width="15" height="15" transform="translate(1706 4929)"/><g transform="translate(1709 4929)"><path d="M2089.127,1020.9l-1.154-1.154,6.347-6.347-6.347-6.346,1.154-1.154,7.5,7.5Z" transform="translate(-2087.974 -1005.902)"/></g></g></symbol><symbol id="calendar" viewBox="0 0 26 26"><g transform="translate(-2236.588 -853.203)"><rect class="a" width="26" height="26" transform="translate(2236.588 853.203)"/><path class="b" d="M2260.088,877.753h-21a1.552,1.552,0,0,1-1.55-1.55v-18a1.552,1.552,0,0,1,1.55-1.55h3v1.1h-3a.451.451,0,0,0-.45.45v18a.451.451,0,0,0,.45.45h21a.451.451,0,0,0,.45-.45v-18a.451.451,0,0,0-.45-.45h-3v-1.1h3a1.552,1.552,0,0,1,1.55,1.55v18A1.551,1.551,0,0,1,2260.088,877.753Z"/><rect class="b" width="1.1" height="4" transform="translate(2243.538 855.203)"/><rect class="b" width="1.1" height="4" transform="translate(2254.538 855.203)"/><rect class="b" width="1" height="1.1" transform="translate(2249.088 862.653)"/><rect class="b" width="22.898" height="1.1" transform="translate(2238.187 862.653)"/><rect class="b" width="1" height="1.1" transform="translate(2244.088 867.653)"/><rect class="b" width="1" height="1.1" transform="translate(2249.088 867.653)"/><rect class="b" width="1" height="1.1" transform="translate(2254.088 867.653)"/><rect class="b" width="1" height="1.1" transform="translate(2244.088 872.653)"/><rect class="b" width="1" height="1.1" transform="translate(2249.088 872.653)"/><rect class="b" width="7" height="1.1" transform="translate(2246.088 856.653)"/></g></symbol><symbol id="close" viewBox="0 0 31 31"><rect class="a" width="31" height="31"/><path class="b" d="M23.25-11.675,20.925-14l-9.3,9.3L2.325-14,0-11.675l9.3,9.3L0,6.925,2.325,9.25l9.3-9.3,9.3,9.3L23.25,6.925l-9.3-9.3Z" transform="translate(3.875 17.875)"/></symbol><symbol id="info" viewBox="0 0 26 26"><g transform="translate(-2236.588 -899.253)"><rect class="a" width="26" height="26" transform="translate(2236.588 899.253)"/><path class="b" d="M2249.588,923.8a11.55,11.55,0,1,1,11.55-11.55A11.563,11.563,0,0,1,2249.588,923.8Zm0-22a10.45,10.45,0,1,0,10.45,10.45A10.462,10.462,0,0,0,2249.588,901.8Z"/><rect class="b" width="1.1" height="11" transform="translate(2249.038 909.253)"/><path class="b" d="M2249.588,906.8a1.55,1.55,0,1,1,1.55-1.55A1.552,1.552,0,0,1,2249.588,906.8Zm0-2a.45.45,0,1,0,.45.45A.451.451,0,0,0,2249.588,904.8Z"/></g></symbol></svg>