<svg xmlns="http://www.w3.org/2000/svg" width="26" height="26" viewBox="0 0 26 26"><defs><style>.a{fill:none;}.b{fill:#00adef;}</style></defs><g transform="translate(-2236.588 -853.203)"><rect class="a" width="26" height="26" transform="translate(2236.588 853.203)"/><path class="b" d="M2260.088,877.753h-21a1.552,1.552,0,0,1-1.55-1.55v-18a1.552,1.552,0,0,1,1.55-1.55h3v1.1h-3a.451.451,0,0,0-.45.45v18a.451.451,0,0,0,.45.45h21a.451.451,0,0,0,.45-.45v-18a.451.451,0,0,0-.45-.45h-3v-1.1h3a1.552,1.552,0,0,1,1.55,1.55v18A1.551,1.551,0,0,1,2260.088,877.753Z"/><rect class="b" width="1.1" height="4" transform="translate(2243.538 855.203)"/><rect class="b" width="1.1" height="4" transform="translate(2254.538 855.203)"/><rect class="b" width="1" height="1.1" transform="translate(2249.088 862.653)"/><rect class="b" width="22.898" height="1.1" transform="translate(2238.187 862.653)"/><rect class="b" width="1" height="1.1" transform="translate(2244.088 867.653)"/><rect class="b" width="1" height="1.1" transform="translate(2249.088 867.653)"/><rect class="b" width="1" height="1.1" transform="translate(2254.088 867.653)"/><rect class="b" width="1" height="1.1" transform="translate(2244.088 872.653)"/><rect class="b" width="1" height="1.1" transform="translate(2249.088 872.653)"/><rect class="b" width="7" height="1.1" transform="translate(2246.088 856.653)"/></g></svg>