<svg xmlns="http://www.w3.org/2000/svg" width="26" height="26" viewBox="0 0 26 26"><defs><style>.a{fill:none;}.b{fill:#00adef;}</style></defs><g transform="translate(-2236.588 -899.253)"><rect class="a" width="26" height="26" transform="translate(2236.588 899.253)"/><path class="b" d="M2249.588,923.8a11.55,11.55,0,1,1,11.55-11.55A11.563,11.563,0,0,1,2249.588,923.8Zm0-22a10.45,10.45,0,1,0,10.45,10.45A10.462,10.462,0,0,0,2249.588,901.8Z"/><rect class="b" width="1.1" height="11" transform="translate(2249.038 909.253)"/><path class="b" d="M2249.588,906.8a1.55,1.55,0,1,1,1.55-1.55A1.552,1.552,0,0,1,2249.588,906.8Zm0-2a.45.45,0,1,0,.45.45A.451.451,0,0,0,2249.588,904.8Z"/></g></svg>